# xmcd
#
# Track frame offsets:
#	150
#	16115
#	27446
#	75383
#	99175
#	133401
#	192362
#
# Disc length: 3212 seconds
#
# Revision: 1
# Processed by: cddbd v1.5.2PL0 Copyright (c) Steve Scherf et al.
# Submitted via: audiograbber 1.83.01
#
DISCID=4d0c8a07
DTITLE=Grateful Dead - 79-04-16 Club Front, San Rafael CA
DYEAR=1900
DGENRE=
TTITLE0=Banter > I Need A Miracle
TTITLE1=Jam
TTITLE2=Jam
TTITLE3=Scarlet Begonias (aborted) > Banter
TTITLE4=Scarlet Begonias
TTITLE5=Fire On The Mountain
TTITLE6=Space > Jam
EXTD=
EXTT0=
EXTT1=
EXTT2=
EXTT3=
EXTT4=
EXTT5=
EXTT6=
PLAYORDER=
